<svg xmlns="http://www.w3.org/2000/svg" xmlns:xlink="http://www.w3.org/1999/xlink" viewBox="0 0 131 126"><defs><style>.a,.c{fill:none;}.b{fill:#e8f2da;stroke:#8cc63e;}.b,.c{stroke-miterlimit:10;}.c{stroke:#fff;stroke-width:6px;}.d{fill:rgba(0,0,0,0);}.e{clip-path:url(#a);}.f{fill:#018752;}.g{fill:#8cc63e;}.h{stroke:none;}</style><clipPath id="a"><path class="a" d="M0,0H59.862V74.545H0Z"/></clipPath></defs><g transform="translate(-130 -56.063)"><g class="b" transform="translate(131 57.063)"><rect class="h" width="129" height="124" rx="62"/><rect class="a" x="-0.5" y="-0.5" width="130" height="125" rx="62.5"/></g><g class="c" transform="translate(131 57.063)"><rect class="h" width="129" height="124" rx="62"/><rect class="a" x="3" y="3" width="123" height="118" rx="59"/></g><g transform="translate(149 78.063)"><rect class="d" width="93" height="82"/><g transform="translate(16.034 4.26)"><path class="a" d="M0,0H59.862V74.545H0Z"/><g class="e"><path class="f" d="M29.931,74.546h0A106.841,106.841,0,0,1,14.965,61.011,71.428,71.428,0,0,1,4.677,46.818C1.573,41.008,0,35.382,0,30.1A29.96,29.96,0,0,1,41.575,2.343,29.973,29.973,0,0,1,59.862,30.1c0,5.286-1.573,10.912-4.677,16.722A71.428,71.428,0,0,1,44.9,61.011,106.841,106.841,0,0,1,29.932,74.545Zm.535-67.091a22.9,22.9,0,1,0,22.983,22.9A22.966,22.966,0,0,0,30.466,7.455Z" transform="translate(0 0)"/><path class="g" d="M12.917,29.819H4.736a1.4,1.4,0,0,1-1.292-1.287V14.587l-1.722,1.5L0,14.158l4.736-4.5V3h4.09v3L15.5,0,31,14.158l-1.722,1.931-1.722-1.5V28.531a1.377,1.377,0,0,1-1.292,1.287H18.3V21.881H12.917v7.937Zm-.089-19.17v5.325h5.345V10.649H12.827Z" transform="translate(14.966 13.844)"/></g></g></g></g></svg>