<svg xmlns="http://www.w3.org/2000/svg" viewBox="0 0 131 126"><defs><style>.a{fill:#e8f2da;stroke:#8cc63e;}.a,.b{stroke-miterlimit:10;}.b,.f{fill:none;}.b{stroke:#fff;stroke-width:6px;}.c{fill:#018752;}.d{fill:#8cc63e;}.e{stroke:none;}</style></defs><g transform="translate(-130 -56.063)"><g class="a" transform="translate(131 57.063)"><rect class="e" width="129" height="124" rx="62"/><rect class="f" x="-0.5" y="-0.5" width="130" height="125" rx="62.5"/></g><g class="b" transform="translate(131 57.063)"><rect class="e" width="129" height="124" rx="62"/><rect class="f" x="3" y="3" width="123" height="118" rx="59"/></g><g transform="translate(151 78.063)"><g transform="translate(0 16.871) rotate(-13)"><path class="c" d="M67,44H0V0H67V44h0ZM6.288,15.461V39.755H60.711V15.461ZM6,5v6.39H60.423V5Z" transform="translate(0 17)"/><path class="d" d="M65.982,0,0,6.174l.735,7.917h2.56l-.519-5.6,60.9-5.7.553,5.95L7.024,14.091H62l2.709-.254,2.521,27.2-4.189.392V44L70,43.349Z" transform="translate(5)"/><path class="d" d="M9.467,0A3.532,3.532,0,0,0,6.5,1.612,3.534,3.534,0,0,0,0,3.5,3.534,3.534,0,0,0,6.5,5.388,3.534,3.534,0,0,0,13,3.5,3.516,3.516,0,0,0,9.467,0" transform="translate(44 47)"/></g></g></g></svg>