<svg xmlns="http://www.w3.org/2000/svg" viewBox="0 0 131 126"><defs><style>.a{fill:#e8f2da;stroke:#8cc63e;}.a,.b{stroke-miterlimit:10;}.b,.h{fill:none;}.b{stroke:#fff;stroke-width:6px;}.c{fill:rgba(0,0,0,0);}.d{fill:#8cc63e;}.e,.f{fill:#018752;}.e{font-size:17px;font-family:Arial-BoldMT, Arial;font-weight:700;}.g{stroke:none;}</style></defs><g transform="translate(-129.5 -56.063)"><g class="a" transform="translate(130.5 57.063)"><rect class="g" width="129" height="124" rx="62"/><rect class="h" x="-0.5" y="-0.5" width="130" height="125" rx="62.5"/></g><g class="b" transform="translate(130.5 57.063)"><rect class="g" width="129" height="124" rx="62"/><rect class="h" x="3" y="3" width="123" height="118" rx="59"/></g><g transform="translate(149 71.063)"><rect class="c" width="98" height="87"/><path class="d" d="M13.517,27.117A13.539,13.539,0,0,1,0,13.558a13.517,13.517,0,1,1,23.075,9.588A13.409,13.409,0,0,1,13.517,27.117Zm0-24.858a11.3,11.3,0,1,0,11.264,11.3A11.294,11.294,0,0,0,13.517,2.26Z" transform="translate(51.816 10.169)"/><path class="d" d="M13.517,27.117A13.539,13.539,0,0,1,0,13.558a13.517,13.517,0,1,1,23.075,9.588A13.409,13.409,0,0,1,13.517,27.117Zm0-24.858a11.3,11.3,0,1,0,11.264,11.3A11.294,11.294,0,0,0,13.517,2.26Z" transform="translate(24.782 21.468)"/><text class="e" transform="translate(64.701 29.069)"><tspan x="-4.727" y="0">$</tspan></text><text class="e" transform="translate(37.667 40.793)"><tspan x="-4.727" y="0">$</tspan></text><path class="f" d="M0,32.606V19.323L14.45,5.142h23.1a3,3,0,0,1,3,3v.779a3,3,0,0,1-3,3H27.988v1.13H43.351L55.207,1.158a3.949,3.949,0,0,1,5.576,5.593L47.789,19.785a3.922,3.922,0,0,1-2.731,1.157v.018H27.988v.06H16.4L4.419,32.606Z" transform="translate(11.264 46.324)"/></g></g></svg>