<svg xmlns="http://www.w3.org/2000/svg" xmlns:xlink="http://www.w3.org/1999/xlink" viewBox="0 0 35 35"><defs><style>.a{fill:none;}.b{fill:rgba(0,0,0,0);}.c{fill:#868f98;}.d{clip-path:url(#a);}.e{fill:#5a5b5d;}</style><clipPath id="a"><path class="a" d="M11.308,7.041H0V0H22.615V7.041Z"/></clipPath></defs><rect class="b" width="35" height="35"/><g transform="translate(6.462 1.178)"><path class="c" d="M0,21.5H1.057V0H0Z" transform="translate(10.678 5.244)"/><g transform="translate(0 0)"><path class="c" d="M.136.7a.5.5,0,0,0,.31.138C.555.847.57.928.853.718L.129,0C.145.015-.007.246,0,.369A.488.488,0,0,0,.136.7" transform="translate(6.527 14.949)"/><path class="c" d="M0,.083l.8.79A1.533,1.533,0,0,0,.86.549.548.548,0,0,0,.651.2C.555.106.5.011.394,0S.046.129,0,.083" transform="translate(7.917 15.622)"/><path class="c" d="M5.034,6.882h0A5.7,5.7,0,0,1,1.361,5.087,5.215,5.215,0,0,1,.045,1.918,8.728,8.728,0,0,1,.053.056H.059A8.4,8.4,0,0,1,1.053,0,8.105,8.105,0,0,1,3.084.241,4.465,4.465,0,0,1,5.137,1.334,5.6,5.6,0,0,1,6.961,4.97a1.908,1.908,0,0,1-.516,1.4A1.947,1.947,0,0,1,5.034,6.882ZM4.256,4.306h0l.353.35.249-.246L4.5,4.057s.006-.017.026-.058A1.287,1.287,0,0,0,4.7,3.477a.85.85,0,0,0-.3-.6.779.779,0,0,0-.255-.15L4.1,2.711a.7.7,0,0,0-.288-.079H3.757a.621.621,0,0,0-.244.039.84.84,0,0,0-.088.048.57.57,0,0,1-.178.083A.022.022,0,0,1,3.231,2.8l-.753-.745h.008a.353.353,0,0,0,.07-.015l.028-.008a.568.568,0,0,1,.138-.023h.015a.309.309,0,0,1,.184.105c.029.026.061.055.1.082l.244-.322A.864.864,0,0,0,2.75,1.66l-.057,0a1.136,1.136,0,0,0-.344.13.441.441,0,0,1-.091.041L2.126,1.7l-.248.246.129.127a.758.758,0,0,0-.259.539.8.8,0,0,0,.246.653.821.821,0,0,0,.351.208.65.65,0,0,0,.182.026.779.779,0,0,0,.209-.03.854.854,0,0,1,.113-.023c.09-.014.155-.023.353-.19l.834.826a.26.26,0,0,0-.063.023l-.087.036a.72.72,0,0,1-.249.06L3.6,4.2a.926.926,0,0,1-.427-.191l-.213.309a1.041,1.041,0,0,0,.452.236.882.882,0,0,0,.192.022.752.752,0,0,0,.23-.035l.06-.016c.081-.02.14-.035.357-.222Z" transform="translate(4.432 12.655)"/><path class="c" d="M.163.135A.484.484,0,0,0,.024.441c-.01.109-.092.122.121.4L.869.128C.853.143.62-.007.5,0A.5.5,0,0,0,.163.135" transform="translate(14.845 9.603)"/><path class="c" d="M.8,0,0,.79A1.573,1.573,0,0,0,.327.852.558.558,0,0,0,.679.644C.774.55.87.493.881.39S.751.045.8,0" transform="translate(14.153 10.979)"/><path class="c" d="M1.925,6.9h0a1.945,1.945,0,0,1-1.4-.511A1.907,1.907,0,0,1,0,4.991,5.593,5.593,0,0,1,1.812,1.348,6.007,6.007,0,0,1,5.925,0a7.983,7.983,0,0,1,.967.053v0a8.778,8.778,0,0,1,.013,1.858A5.219,5.219,0,0,1,5.6,5.088,5.683,5.683,0,0,1,1.925,6.9Zm.66-3.959a1.02,1.02,0,0,0-.238.447.794.794,0,0,0,.013.418c.007.023.012.042.017.06.021.081.035.139.224.353l-.353.35.248.246.357-.353h0a.31.31,0,0,1,.059.026c.038.019.09.045.15.071a.984.984,0,0,0,.368.1h.008a.865.865,0,0,0,.605-.3.761.761,0,0,0,.15-.25l.017-.039a.689.689,0,0,0,.079-.285V3.747A.648.648,0,0,0,4.25,3.48a.8.8,0,0,0-.05-.09c-.045-.074-.1-.167-.078-.189l.755-.747c-.006.009,0,.039.014.081a.579.579,0,0,1,.03.175.3.3,0,0,1-.106.182,1.261,1.261,0,0,0-.084.1l.326.242a.788.788,0,0,0,.214-.564,1.113,1.113,0,0,0-.131-.34c-.029-.057-.046-.09-.041-.095l.129-.127L4.979,1.86l-.128.127a.773.773,0,0,0-.545-.257l-.066,0a.843.843,0,0,0-.8.593.693.693,0,0,0,0,.388.832.832,0,0,1,.023.111c.014.089.024.153.193.35L2.822,4A.239.239,0,0,0,2.8,3.935a.822.822,0,0,1-.1-.364A.914.914,0,0,1,2.9,3.148l-.311-.211Z" transform="translate(11.082 7.527)"/><path class="c" d="M.136.7a.5.5,0,0,0,.31.138C.555.847.57.928.853.718L.129,0C.145.015-.007.246,0,.369A.488.488,0,0,0,.136.7" transform="translate(6.527 5.348)"/><path class="c" d="M0,.083l.8.79A1.533,1.533,0,0,0,.86.549.548.548,0,0,0,.651.2C.555.106.5.011.394,0S.046.129,0,.083" transform="translate(7.917 6.021)"/><path class="c" d="M5.034,6.882h0A5.7,5.7,0,0,1,1.361,5.087,5.215,5.215,0,0,1,.045,1.918,8.728,8.728,0,0,1,.053.056H.059A8.4,8.4,0,0,1,1.053,0,8.105,8.105,0,0,1,3.084.241,4.465,4.465,0,0,1,5.137,1.334,5.6,5.6,0,0,1,6.961,4.97a1.908,1.908,0,0,1-.516,1.4A1.947,1.947,0,0,1,5.034,6.882ZM4.256,4.306h0l.353.35.249-.246L4.5,4.057s.006-.017.026-.058A1.287,1.287,0,0,0,4.7,3.477a.85.85,0,0,0-.3-.6.779.779,0,0,0-.255-.15L4.1,2.711a.7.7,0,0,0-.288-.079H3.757a.621.621,0,0,0-.244.039.84.84,0,0,0-.088.048.57.57,0,0,1-.178.083A.022.022,0,0,1,3.231,2.8l-.753-.745h.008a.353.353,0,0,0,.07-.015l.028-.008a.568.568,0,0,1,.138-.023h.015a.309.309,0,0,1,.184.105c.029.026.061.055.1.082l.244-.322A.864.864,0,0,0,2.75,1.66l-.057,0a1.136,1.136,0,0,0-.344.13.441.441,0,0,1-.091.041L2.126,1.7l-.248.246.129.127a.758.758,0,0,0-.259.539.8.8,0,0,0,.246.653.821.821,0,0,0,.351.208.65.65,0,0,0,.182.026.779.779,0,0,0,.209-.03.854.854,0,0,1,.113-.023c.09-.014.155-.023.353-.19l.834.826a.26.26,0,0,0-.063.023l-.087.036a.72.72,0,0,1-.249.06L3.6,4.2a.926.926,0,0,1-.427-.191l-.213.309a1.041,1.041,0,0,0,.452.236.882.882,0,0,0,.192.022.752.752,0,0,0,.23-.035l.06-.016c.081-.02.14-.035.357-.222Z" transform="translate(4.432 3.054)"/><path class="c" d="M.072.174A.417.417,0,0,0,0,.458c.008.1-.059.12.168.328L.678.055C.667.07.442-.021.336,0A.434.434,0,0,0,.072.174" transform="translate(13.455 2.153)"/><path class="c" d="M.557,0,0,.805a1.413,1.413,0,0,0,.291,0A.489.489,0,0,0,.56.572C.626.476.7.412.692.321S.525.046.557,0" transform="translate(13.121 3.402)"/><path class="c" d="M1.606,6.707h0a1.55,1.55,0,0,1-.885-.255A1.675,1.675,0,0,1,.046,5.334a4.876,4.876,0,0,1,.967-3.412A4.63,4.63,0,0,1,3.549.293,7.836,7.836,0,0,1,5.166,0l0,0A7.709,7.709,0,0,1,5.48,1.6a4.547,4.547,0,0,1-.606,2.934A4.486,4.486,0,0,1,1.606,6.707Zm.328-3.544h0a.9.9,0,0,0-.133.422.7.7,0,0,0,.08.357c.01.019.018.035.025.05.031.066.053.114.249.267l-.246.356.252.173.25-.361h0a.307.307,0,0,1,.054.013l.1.028a1.193,1.193,0,0,0,.282.042A.473.473,0,0,0,2.946,4.5a.752.752,0,0,0,.471-.354.657.657,0,0,0,.089-.24l.008-.035a.6.6,0,0,0,.021-.257L3.53,3.587a.554.554,0,0,0-.077-.223A.738.738,0,0,0,3.4,3.3c-.051-.058-.114-.129-.1-.152l.527-.762c0,.009.009.034.025.065A.516.516,0,0,1,3.9,2.6a.268.268,0,0,1-.062.174,1.118,1.118,0,0,0-.056.1l.319.156A.69.69,0,0,0,4.2,2.5a.984.984,0,0,0-.167-.271c-.035-.045-.054-.07-.05-.075l.089-.13-.252-.172-.09.129a.777.777,0,0,0-.4-.142.889.889,0,0,0-.108.008.717.717,0,0,0-.527.314.7.7,0,0,0-.124.332.606.606,0,0,0,.067.332.738.738,0,0,1,.038.092c.026.074.045.128.222.271l-.582.841a.219.219,0,0,0-.03-.048.72.72,0,0,1-.142-.3.778.778,0,0,1,.1-.394l-.3-.131Z" transform="translate(10.558 0)"/><path class="c" d="M.163.135A.484.484,0,0,0,.024.441c-.01.109-.092.122.121.4L.869.128C.853.143.62-.007.5,0A.5.5,0,0,0,.163.135" transform="translate(14.845 18.563)"/><path class="c" d="M.8,0,0,.79A1.573,1.573,0,0,0,.327.852.558.558,0,0,0,.679.644C.774.55.87.493.881.39S.751.045.8,0" transform="translate(14.153 19.94)"/><path class="c" d="M1.925,6.9h0a1.945,1.945,0,0,1-1.4-.511A1.907,1.907,0,0,1,0,4.991,5.593,5.593,0,0,1,1.812,1.348,6.007,6.007,0,0,1,5.925,0a7.983,7.983,0,0,1,.967.053v0a8.778,8.778,0,0,1,.013,1.858A5.219,5.219,0,0,1,5.6,5.088,5.683,5.683,0,0,1,1.925,6.9Zm.66-3.959a1.02,1.02,0,0,0-.238.447.794.794,0,0,0,.013.418c.007.023.012.042.017.06.021.081.035.139.224.353l-.353.35.248.246.357-.353h0a.31.31,0,0,1,.059.026c.038.019.09.045.15.071a.984.984,0,0,0,.368.1h.008a.865.865,0,0,0,.605-.3.761.761,0,0,0,.15-.25l.017-.039a.689.689,0,0,0,.079-.285V3.747A.648.648,0,0,0,4.25,3.48a.8.8,0,0,0-.05-.09c-.045-.074-.1-.167-.078-.189l.755-.747c-.006.009,0,.039.014.081a.579.579,0,0,1,.03.175.3.3,0,0,1-.106.182,1.261,1.261,0,0,0-.084.1l.326.242a.788.788,0,0,0,.214-.564,1.113,1.113,0,0,0-.131-.34c-.029-.057-.046-.09-.041-.095l.129-.127L4.979,1.86l-.128.127a.773.773,0,0,0-.545-.257l-.066,0a.843.843,0,0,0-.8.593.693.693,0,0,0,0,.388.832.832,0,0,1,.023.111c.014.089.024.153.193.35L2.822,4A.239.239,0,0,0,2.8,3.935a.822.822,0,0,1-.1-.364A.914.914,0,0,1,2.9,3.148l-.311-.211Z" transform="translate(11.082 16.487)"/><g transform="translate(0 26.153)"><path class="a" d="M11.308,7.041H0V0H22.615V7.041Z" transform="translate(0 0)"/><g class="d" transform="translate(0 0)"><path class="e" d="M18.644,7.04H4.159L1.526,1.28H0V0H22.616V1.28H21.277L18.644,7.04ZM3.071,1.28l1.985,4.48H17.747l1.985-4.48Z" transform="translate(0 0)"/></g></g></g></g></svg>