<svg xmlns="http://www.w3.org/2000/svg" xmlns:xlink="http://www.w3.org/1999/xlink" viewBox="0 0 35 35"><defs><style>.a{fill:none;}.b{fill:rgba(0,0,0,0);}.c{fill:#868f98;}.d{clip-path:url(#a);}.e{fill:#5a5b5d;}</style><clipPath id="a"><path class="a" d="M24.288,0V12.647H0V0Z"/></clipPath></defs><rect class="b" width="35" height="35"/><g transform="translate(5.385 0.538)"><path class="c" d="M8.15,19.749h0L6.982,18.87C3.3,16.1,0,13.018,0,5.822c0-.271.006-.56.019-.907L.085,3.087l1.844-.019a6.862,6.862,0,0,0,4.806-1.56L8.15,0,9.563,1.507a6.857,6.857,0,0,0,4.806,1.56l1.835.019.073,1.821c.014.313.021.612.021.915,0,7.2-3.3,10.278-6.982,13.048l-1.167.878Zm0-17.874-.472.5A8.006,8.006,0,0,1,1.943,4.345l-.615.007-.021.608c-.012.309-.018.591-.018.863,0,6.621,2.931,9.365,6.473,12.03l.389.293.389-.293c3.541-2.665,6.473-5.41,6.473-12.03,0-.263-.006-.546-.018-.863l-.026-.607-.611-.007A8,8,0,0,1,8.621,2.378Z" transform="translate(3.995 0)"/><g transform="translate(0 21.224)"><path class="a" d="M24.288,0V12.647H0V0Z" transform="translate(0 0)"/><g class="d" transform="translate(0 0)"><path class="e" d="M22.288.34,18.149,4.447H11.715a.233.233,0,0,1-.234-.233V3.983a.233.233,0,0,1,.234-.233H15.5a1.163,1.163,0,1,0,0-2.326H6.27a1.175,1.175,0,0,0-.828.341L.344,6.824A1.155,1.155,0,0,0,0,7.669c0,.212-.006,3.717,0,3.875a1.148,1.148,0,0,0,.341.763,1.179,1.179,0,0,0,1.657,0L6.756,7.589H17.814a1.177,1.177,0,0,0,.829-.341l5.3-5.263a1.157,1.157,0,0,0,0-1.645,1.179,1.179,0,0,0-1.657,0" transform="translate(0)"/></g></g></g></svg>