<svg xmlns="http://www.w3.org/2000/svg" viewBox="0 0 35 35"><defs><style>.a{fill:rgba(0,0,0,0);}.b{fill:#6d6e70;}.c{fill:#868f98;}</style></defs><rect class="a" width="35" height="35"/><g transform="translate(2.692 3.307)"><g transform="translate(0 0)"><path class="b" d="M18.207,26.178l-1.984,1.966-2.493-2.46a1.013,1.013,0,0,0-1.424,0l-2.492,2.46-2.492-2.46a1.017,1.017,0,0,0-1.425,0L3.5,28.051,1.414,25.982V1.412H17.593V3.007a9.819,9.819,0,0,1,2.026,1V1.013A1.013,1.013,0,0,0,18.605,0H1.013A1.013,1.013,0,0,0,0,1.013V26.4a1.013,1.013,0,0,0,.3.721l2.487,2.457a1.013,1.013,0,0,0,1.425,0l2.4-2.367L9.1,29.675a1.013,1.013,0,0,0,1.425,0l2.492-2.46,2.493,2.46a1.012,1.012,0,0,0,1.424,0l2.384-2.353a1.012,1.012,0,0,0,.3-.72V20.5c-.63.407-.7.746-1.412,1Z" transform="translate(0 0)"/></g><path class="c" d="M10,16.387a8.128,8.128,0,0,1-4.826-1.581H.405a.405.405,0,1,1,0-.81H4.22A8.264,8.264,0,0,1,2.242,10.8H.405A.406.406,0,0,1,0,10.4.4.4,0,0,1,.36,10l.016,0A.1.1,0,0,1,.405,9.99H2.016A7.878,7.878,0,0,1,1.939,6.8H.405a.355.355,0,0,1-.1-.021l-.008,0A.4.4,0,0,1,0,6.392a.405.405,0,0,1,.405-.4H2.121A8.129,8.129,0,0,1,3.794,2.858H.405a.406.406,0,0,1,0-.811H4.6a8.188,8.188,0,1,1,8.7,13.648A8.106,8.106,0,0,1,10,16.387ZM4.9,11.829a6.281,6.281,0,1,0,.02-7.3H10.95a1.013,1.013,0,0,1,0,2.026H4.024a.317.317,0,0,1-.046,0l-.024,0a6.322,6.322,0,0,0-.228,1.642,6.354,6.354,0,0,0,.221,1.618l.034,0a.288.288,0,0,1,.042,0H10.95a1.013,1.013,0,0,1,0,2.027Z" transform="translate(4.298 4.059)"/><path class="c" d="M10.214,7.2,3.043.024,3.02,0A9.8,9.8,0,0,1,0,3.153l.018.018,7.111,7.113a1.813,1.813,0,0,0,2.559,0l.525-.522a1.815,1.815,0,0,0,0-2.56" transform="translate(19.672 17.282)"/></g></svg>