<svg xmlns="http://www.w3.org/2000/svg" xmlns:xlink="http://www.w3.org/1999/xlink" viewBox="0 0 35 35"><defs><style>.a{fill:none;}.b{fill:rgba(0,0,0,0);}.c{fill:#5a6066;}.d{fill:#868f98;}.e{clip-path:url(#a);}.f{clip-path:url(#b);}</style><clipPath id="a"><path class="a" d="M0,0H8.847V8.83H0V0Z"/></clipPath><clipPath id="b"><path class="a" d="M0,34.537H32.74V0H0Z"/></clipPath></defs><rect class="b" width="35" height="35"/><g transform="translate(1.615 0.443)"><path class="c" d="M8.1,4.576A3.537,3.537,0,0,1,4.427,7.968a3.65,3.65,0,1,1-.009-7.3A3.54,3.54,0,0,1,6,1.077V.3A4.139,4.139,0,0,0,4.418,0,4.421,4.421,0,0,0,0,4.415,4.3,4.3,0,0,0,4.425,8.675a4.567,4.567,0,0,0,4.4-4.1Z" transform="translate(10.865 4.266)"/><path class="d" d="M1.346,4.485H1.084V4.04a1.686,1.686,0,0,1-.544-.15.938.938,0,0,1-.362-.348A1.256,1.256,0,0,1,0,2.955l.449-.084A1.1,1.1,0,0,0,.633,3.4a.65.65,0,0,0,.45.265V2.245a1.864,1.864,0,0,1-.563-.213A.822.822,0,0,1,.192,1.7a.972.972,0,0,1-.114-.478A.979.979,0,0,1,.414.456,1.179,1.179,0,0,1,1.084.213V0h.263V.213a1.106,1.106,0,0,1,.618.228,1.02,1.02,0,0,1,.352.666l-.461.069a.764.764,0,0,0-.165-.4A.607.607,0,0,0,1.346.59V1.874a3.5,3.5,0,0,1,.446.131,1.106,1.106,0,0,1,.34.222.906.906,0,0,1,.2.312,1.067,1.067,0,0,1,.07.392,1.078,1.078,0,0,1-.294.771,1.1,1.1,0,0,1-.765.332v.45Zm0-2.178V3.663a.661.661,0,0,0,.431-.225.7.7,0,0,0,.169-.477.6.6,0,0,0-.121-.391A1.036,1.036,0,0,0,1.346,2.307ZM1.084.584a.666.666,0,0,0-.41.209.581.581,0,0,0-.149.4.567.567,0,0,0,.127.381.872.872,0,0,0,.432.245Z" transform="translate(14.054 6.487)"/><path class="d" d="M1.346,4.485H1.084V4.039a1.639,1.639,0,0,1-.545-.15.938.938,0,0,1-.362-.347A1.247,1.247,0,0,1,0,2.954l.448-.083A1.142,1.142,0,0,0,.631,3.4a.664.664,0,0,0,.452.265V2.245A1.851,1.851,0,0,1,.52,2.032.841.841,0,0,1,.19,1.7a1,1,0,0,1-.114-.477A.966.966,0,0,1,.413.455a1.183,1.183,0,0,1,.67-.242V0h.262V.213a1.1,1.1,0,0,1,.616.229,1.009,1.009,0,0,1,.353.665l-.461.069a.746.746,0,0,0-.165-.4A.6.6,0,0,0,1.346.59V1.874a3.616,3.616,0,0,1,.447.132,1.093,1.093,0,0,1,.339.223.905.905,0,0,1,.2.312,1.064,1.064,0,0,1,.07.391,1.072,1.072,0,0,1-1.059,1.1v.45Zm0-2.178V3.663a.665.665,0,0,0,.43-.226.7.7,0,0,0,.17-.477.6.6,0,0,0-.121-.391A1.052,1.052,0,0,0,1.346,2.307ZM1.084.584A.661.661,0,0,0,.673.793a.577.577,0,0,0-.15.4.579.579,0,0,0,.127.38.864.864,0,0,0,.434.245Z" transform="translate(20.991 2.211)"/><g transform="translate(17.878 0)"><path class="a" d="M0,0H8.847V8.83H0V0Z" transform="translate(0 0)"/><g class="e" transform="translate(0 0)"><path class="c" d="M4.424,8.83A4.415,4.415,0,1,1,8.847,4.415,4.424,4.424,0,0,1,4.424,8.83Zm0-8.124A3.709,3.709,0,1,0,8.139,4.415,3.716,3.716,0,0,0,4.424.706Z" transform="translate(0 0)"/></g></g><path class="d" d="M4.957,0A1.846,1.846,0,0,0,3.4.85a1.846,1.846,0,1,0,0,1.992A1.847,1.847,0,1,0,4.957,0" transform="translate(17.606 26.858)"/><path class="a" d="M0,34.537H32.74V0H0Z"/><g class="f"><path class="c" d="M27.52,18.165H0V0H27.52V18.164ZM1.332,5.76V16.836H26.188V5.76Zm0-4.43V3.987H26.188V1.329Z" transform="translate(0 16.373)"/><path class="d" d="M2.223,1.54l3.409.6A5.572,5.572,0,0,1,5.26.726L1.144,0,0,6.46H1.352l.1-.557,3.16.557h10.2L1.76,4.158Z" transform="translate(4.496 8.583)"/><path class="d" d="M.844,0A5.668,5.668,0,0,1,0,1.2L11.659,3.258,11.2,5.875,9.314,5.543v1.8l1.573.277L9.314,16.5V19.94l.721.128L13.2,2.18Z" transform="translate(19.537 11.184)"/></g></g></svg>