<svg xmlns="http://www.w3.org/2000/svg" xmlns:xlink="http://www.w3.org/1999/xlink" viewBox="0 0 16.793 10.496"><defs><style>.a{fill:#111;}.b{clip-path:url(#a);}.c{fill:#65656a;}</style><clipPath id="a"><path class="a" d="M.7,10.5c-.419,0-.7-.21-.7-.525V8.921C0,8.606.28,8.4.7,8.4H16.093c.42,0,.7.21.7.525V9.971c0,.315-.28.525-.7.525Zm0-4.2c-.419,0-.7-.21-.7-.525V4.723C0,4.408.28,4.2.7,4.2H16.093c.42,0,.7.21.7.525V5.772c0,.315-.28.525-.7.525Zm0-4.2c-.419,0-.7-.21-.7-.525V.525C0,.21.28,0,.7,0H16.093c.42,0,.7.21.7.525V1.574c0,.315-.28.525-.7.525Z" transform="translate(0 0)"/></clipPath></defs><g class="b" transform="translate(0 0)"><g transform="translate(-4.198 -7.347)"><rect class="c" width="25.189" height="25.189"/></g></g></svg>