<svg xmlns="http://www.w3.org/2000/svg" xmlns:xlink="http://www.w3.org/1999/xlink" viewBox="0 0 12.271 12.271"><defs><style>.a{fill:none;}.b{clip-path:url(#a);}.c{fill:#65656a;}</style><clipPath id="a"><path class="a" d="M10.983,12.272a.53.53,0,0,1-.377-.156L8.275,9.783A5.345,5.345,0,1,1,9.783,8.275l2.332,2.332a.533.533,0,0,1,0,.754l-.754.754A.53.53,0,0,1,10.983,12.272ZM5.335,1.067A4.268,4.268,0,1,0,9.6,5.335,4.273,4.273,0,0,0,5.335,1.067Z" transform="translate(0 0)"/></clipPath></defs><g class="b" transform="translate(0 0)"><g transform="translate(-3.061 -3.06)"><rect class="c" width="18.363" height="18.363"/></g></g></svg>