<?xml version="1.0" encoding="UTF-8"?>
<svg width="34px" height="34px" viewBox="0 0 34 34" version="1.1" xmlns="http://www.w3.org/2000/svg" xmlns:xlink="http://www.w3.org/1999/xlink">
    <!-- Generator: Sketch 51.2 (57519) - http://www.bohemiancoding.com/sketch -->
    <title>money-coins</title>
    <desc>Created with Sketch.</desc>
    <defs></defs>
    <g id="Light" stroke="none" stroke-width="1" fill="none" fill-rule="evenodd">
        <g id="navDesktop_bancaDigital-Copy" transform="translate(-302.000000, -208.000000)" stroke-width="2">
            <g id="money-coins" transform="translate(303.000000, 209.000000)">
                <polyline id="Shape" stroke="#858F97" stroke-linecap="square" points="14 20 0 20 0 0 28 0 28 9.28571429"></polyline>
                <ellipse id="Oval" stroke="#595F66" stroke-linecap="square" cx="25.5" cy="15.5" rx="6.5" ry="2.5"></ellipse>
                <path d="M19,16 L19,20.2 C19,21.7463 21.9098333,23 25.5,23 C29.0901667,23 32,21.7463 32,20.2 L32,16" id="Shape" stroke="#595F66"></path>
                <path d="M19,20 L19,24.2 C19,25.7463 21.9098333,27 25.5,27 C29.0901667,27 32,25.7463 32,24.2 L32,20" id="Shape" stroke="#595F66"></path>
                <path d="M19,25 L19,29.2 C19,30.7463 21.9098333,32 25.5,32 C29.0901667,32 32,30.7463 32,29.2 L32,25" id="Shape" stroke="#595F66"></path>
                <g id="Group" transform="translate(12.000000, 7.000000)" stroke="#858F97" stroke-linecap="square">
                    <circle id="Oval" cx="2.5" cy="2.5" r="2.5"></circle>
                </g>
            </g>
        </g>
    </g>
</svg>