<svg xmlns="http://www.w3.org/2000/svg" xmlns:xlink="http://www.w3.org/1999/xlink" viewBox="0 0 35 35"><defs><style>.a{fill:none;}.b{fill:rgba(0,0,0,0);}.c{fill:#868f98;}.d{fill:#5a5b5d;}.e{clip-path:url(#a);}</style><clipPath id="a"><path class="a" d="M0,1.05V0H15.919V1.05H0Z"/></clipPath></defs><rect class="b" width="35" height="35"/><g transform="translate(0.538 5.385)"><path class="c" d="M.248.5H1.31a.248.248,0,1,0,0-.5H.248a.248.248,0,1,0,0,.5" transform="translate(24.511 10.613)"/><path class="c" d="M16.189,2.654H.183A.183.183,0,0,1,0,2.471V.366A.367.367,0,0,1,.366,0H16a.367.367,0,0,1,.367.366V.8l.01,1.684A.184.184,0,0,1,16.189,2.654Zm-.4-2.179a.286.286,0,0,0-.057,0c-.018,0-1.782.036-2.181.057a.4.4,0,0,0-.433.326V2.331a.119.119,0,0,0,.121.121h2.75a.132.132,0,0,0,.142-.121V.941C16.135.52,15.9.474,15.793.474ZM.579.474C.477.474.238.52.238.941v1.39a.131.131,0,0,0,.142.121H3.13a.119.119,0,0,0,.121-.121V.862A.409.409,0,0,0,2.817.536C2.679.529,2.219.512.692.48H.636A.305.305,0,0,0,.579.474ZM4.032,1.806c-.078,0-.142.04-.142.089s.064.089.142.089h8.3c.078,0,.142-.04.142-.089s-.064-.089-.142-.089Zm0-.27c-.078,0-.142.04-.142.089s.064.089.142.089h8.3c.078,0,.142-.04.142-.089s-.064-.089-.142-.089Zm0-.269c-.078,0-.142.04-.142.089s.062.089.142.089h8.3c.078,0,.142-.04.142-.089s-.064-.089-.142-.089Z" transform="translate(17.106 16.05)"/><path class="d" d="M17.1,14.4h-.852a.726.726,0,0,1-.725-.725V12.29H2.644v1.383a.725.725,0,0,1-.725.725H1.067a.726.726,0,0,1-.725-.725V11.888a1.4,1.4,0,0,1-.316-.833V6.869a1.719,1.719,0,0,1,1-1.733c-.264-.1-.545-.2-.629-.247C.375,4.876.348,4.865.323,4.855.164,4.788,0,4.72,0,4.235c0-.556.432-.6.436-.6H1.672a.3.3,0,0,1,.309.236v.671l.259-.019c.26-.765.9-2.615,1.221-3.265.4-.8.7-.846.7-.846A37.293,37.293,0,0,1,8.725,0c.1,0,.228,0,.372,0h.065c.143,0,.268,0,.371,0A37.319,37.319,0,0,1,14.1.413s.3.043.7.846c.317.645.958,2.5,1.219,3.262l.3.022V3.873a.3.3,0,0,1,.309-.236h1.236s.436.042.436.6c0,.485-.164.553-.322.619-.026.011-.052.022-.077.034-.09.044-.416.168-.674.263a1.724,1.724,0,0,1,.967,1.717v4.186a1.388,1.388,0,0,1-.366.886v1.732A.726.726,0,0,1,17.1,14.4ZM.917,9.882a.351.351,0,0,0-.351.35v1.037a.351.351,0,0,0,.351.351H17.376a.352.352,0,0,0,.351-.351V10.232a.351.351,0,0,0-.351-.35ZM2.2,5.238A1.769,1.769,0,0,0,.879,5.7,1.434,1.434,0,0,0,.5,6.633l0,2.974H17.8V6.633h-.005a1.432,1.432,0,0,0-.379-.935,1.767,1.767,0,0,0-1.321-.459H2.2ZM9.081,4.62c.241,0,1.187.056,2.189.11l.1.005.124.007c1.353.073,2.886.155,3.235.155h.038a.352.352,0,0,0,.3-.129.481.481,0,0,0,.03-.374c-.007-.022-.741-2.211-1.065-2.867s-.563-.691-.573-.693A27.851,27.851,0,0,0,9.528.5C9.359.5,9.209.5,9.081.5S8.8.5,8.635.5A27.85,27.85,0,0,0,4.707.834c-.01,0-.257.05-.573.693S3.076,4.373,3.069,4.394a.476.476,0,0,0,.029.374.353.353,0,0,0,.3.129h.038c.358,0,1.94-.086,3.336-.161h.024l.223-.012C7.96,4.673,8.851,4.625,9.081,4.62Z" transform="translate(16.143 9.599)"/><path class="c" d="M0,0,0,0V0H0" transform="translate(17.811 13.675)"/><path class="d" d="M15.993,7.945h0a3.606,3.606,0,0,1-1.609-.453,2.758,2.758,0,0,1-1.433.362,2.791,2.791,0,0,1-1.439-.362,2.8,2.8,0,0,1-1.44.362,2.792,2.792,0,0,1-1.44-.362,2.8,2.8,0,0,1-1.439.362,2.749,2.749,0,0,1-1.433-.362,2.767,2.767,0,0,1-1.336.362c-.242-.17-.536-.353-.847-.547C2.39,6.568.915,5.649.975,4.639l.517-.1-.34-.428H.576L0,3.349c2.706.1,7.578.1,7.626.1,0,0,.063.006.145.006a.712.712,0,0,0,.415-.094c.244-.2.47-.405.689-.608a3.732,3.732,0,0,1,1.7-1.1,11.427,11.427,0,0,1,1.5-.059,21.959,21.959,0,0,0,3.849-.258A25.673,25.673,0,0,0,18.9,0a.089.089,0,0,1,.02,0l.024,0a.406.406,0,0,1,.332.273c-.011.007-1.339.875-1.713,1.172a.166.166,0,0,0-.029.167c.036.064.148.1.334.1a4.285,4.285,0,0,0,.773-.1l0,0a6.181,6.181,0,0,1,.778.668c0,.082-.261.113-.624.155-.67.079-1.683.2-1.942.76a1.248,1.248,0,0,0,.28,1.18c.177.028.4.082.627.139.295.073.6.148.882.188l-.1.265h-.125a81.144,81.144,0,0,0-9.6-.548c-2.528,0-4.961.116-7.23.345a1.019,1.019,0,0,0,.1.317A2.422,2.422,0,0,0,2.847,6.27c.045.035.083.063.112.084l1.573.823h.031a2.067,2.067,0,0,0,1.2-.362,3.381,3.381,0,0,0,1.555.416,2.413,2.413,0,0,0,1.324-.382,3.992,3.992,0,0,0,1.6.391,1.975,1.975,0,0,0,1.242-.391,4.82,4.82,0,0,0,1.723.4,1.673,1.673,0,0,0,1.138-.367,2.922,2.922,0,0,0,1.262.528.9.9,0,0,0,.386.533ZM1.44,4.116l.287.383L3.2,4.345l-.125-.229Zm1.573-.545.428.7,2.326-.354c0-.009-.122-.218-.185-.325C4.779,3.592,3.017,3.571,3.012,3.571ZM.31,3.526l.3.391,2.362.007-.213-.376ZM5.8,3.592l.184.317A9.15,9.15,0,0,0,7.8,3.637Zm6.875-.819h-.01l.015.959h2.576c-.231-.845-1.739-.952-2.376-.959h-.2Zm-1.257,0v.959h.959V2.774Zm-1.344,0v.959h1.055V2.774Zm-.288,0c0,.012-.016.017-.048.025-.116.032-.468.129-1,.933H9.781Z" transform="translate(0.051 6.905)"/><path class="c" d="M16.163.3C12.421.006,2.213,0,0,0,.1.118.216.244.335.364,4,.367,14.268.543,16.064.574l.1-.276" transform="translate(2.236 12.116)"/><g transform="translate(0 14.811)"><path class="a" d="M0,1.05V0H15.919V1.05H0Z" transform="translate(0 0)"/><g class="e" transform="translate(0 0)"><path class="d" d="M15.92.364l-.064,0a3.13,3.13,0,0,1-.422-.03c-.051-.007-.1-.014-.151-.022S15.165.29,15.112.276l-.021,0A1.922,1.922,0,0,1,14.55.05a.155.155,0,0,0-.023-.015H14.52L14.512.02h-.007L14.483.013,14.461.005a.146.146,0,0,0-.021,0h-.051l-.015.007L14.351.02h-.007a.138.138,0,0,0-.023.015l-.007.007a2.418,2.418,0,0,1-1.092.315c-.062,0-.125.008-.192.008H13A2.457,2.457,0,0,1,11.7.05L11.67.035h-.015L11.643.022v0h0L11.633.013,11.611.005H11.59a.166.166,0,0,0-.023,0,.141.141,0,0,0-.021,0l-.015.007h-.015L11.5.019h0a.151.151,0,0,0-.058.029,2.459,2.459,0,0,1-1.3.316A2.494,2.494,0,0,1,8.843.05L8.813.035H8.806L8.791.02,8.776.013H8.762L8.74.005H8.7L8.682.013h-.03L8.63.02,8.622.035,8.592.05a2.455,2.455,0,0,1-1.3.317A2.5,2.5,0,0,1,5.986.05L5.971.042,5.963.035H5.956L5.949.02H5.934A.184.184,0,0,0,5.9.005H5.89a.146.146,0,0,0-.021,0H5.844a.165.165,0,0,0-.035.007H5.794L5.78.02a.094.094,0,0,0-.007.015L5.743.05A2.5,2.5,0,0,1,4.434.366H4.411c-.073,0-.142,0-.209-.009a2.415,2.415,0,0,1-1.1-.322L3.091.025s-.009,0-.014,0A.157.157,0,0,0,3.01.005a.153.153,0,0,0-.036,0L2.952.013,2.937.02H2.93a.155.155,0,0,0-.023.015L2.9.042A2.528,2.528,0,0,1,1.571.367,2.522,2.522,0,0,1,.235.035L.22.025C.144-.02-.013-.006,0,.081c.05.3-.019.54.057.585a2.931,2.931,0,0,0,1.513.383A2.767,2.767,0,0,0,3,.71a2.711,2.711,0,0,0,1.218.33c.062,0,.125.007.191.008h.037A2.775,2.775,0,0,0,5.86.715a2.8,2.8,0,0,0,1.425.335H7.3A2.775,2.775,0,0,0,8.718.715a2.775,2.775,0,0,0,1.418.335h.021A2.763,2.763,0,0,0,11.571.716a2.758,2.758,0,0,0,1.414.333h.021A2.773,2.773,0,0,0,14.424.715a2.759,2.759,0,0,0,1.254.328A2.424,2.424,0,0,1,15.92.364" transform="translate(0 0)"/></g></g><path class="c" d="M3.283,8.007h0l-.47-.356A5.906,5.906,0,0,1,0,2.361c0-.129,0-.257.007-.368l.027-.741.743-.008A2.759,2.759,0,0,0,2.714.611L3.284,0l.569.611a2.755,2.755,0,0,0,1.937.633l.739.008.03.738c.006.142.008.259.008.371a5.907,5.907,0,0,1-2.813,5.29l-.47.356Zm0-7.246-.189.2a3.217,3.217,0,0,1-2.311.8l-.248,0-.008.246c-.005.125-.008.239-.008.35A5.4,5.4,0,0,0,3.127,7.238l.157.118.157-.118A5.4,5.4,0,0,0,6.048,2.361c0-.122,0-.245-.007-.35L6.03,1.764l-.246,0a3.214,3.214,0,0,1-2.311-.8Z" transform="translate(22.008 0)"/></g></svg>