<svg xmlns="http://www.w3.org/2000/svg" xmlns:xlink="http://www.w3.org/1999/xlink" viewBox="0 0 35 35"><defs><style>.a{fill:none;}.b{fill:rgba(0,0,0,0);}.c{fill:#5a6066;}.d{fill:#868f98;}.e{clip-path:url(#a);}.f{clip-path:url(#b);}</style><clipPath id="a"><path class="a" d="M0,0V6.714H26.022V0H0Z"/></clipPath><clipPath id="b"><path class="a" d="M5.411,0h5.411V10.85H0V0Z"/></clipPath></defs><rect class="b" width="35" height="35"/><g transform="translate(0 2.633)"><path class="c" d="M0,1.439H26.307V0H0Z" transform="translate(1.361 28.354)"/><path class="c" d="M0,1.439H23.915V0H0Z" transform="translate(2.318 25.957)"/><path class="d" d="M0,9.591H1.435V0H0Z" transform="translate(5.188 15.406)"/><path class="d" d="M0,9.591H1.435V0H0Z" transform="translate(13.797 15.406)"/><path class="d" d="M0,9.591H1.435V0H0Z" transform="translate(21.928 15.406)"/><path class="d" d="M0,2.4H2.392V0H0Z" transform="translate(4.709 12.049)"/><path class="d" d="M0,2.4H2.392V0H0Z" transform="translate(13.319 12.049)"/><path class="d" d="M0,2.4H2.392V0H0Z" transform="translate(21.45 12.049)"/><g transform="translate(0 0)"><g transform="translate(0 4.376)"><path class="a" d="M0,0V6.714H26.022V0H0Z"/><g class="e"><path class="c" d="M26.02,6.714H0L14.754,0l8.283,3.75A6.486,6.486,0,0,0,26.02,6.713ZM14.754,1.58,6.633,5.275H22.948L14.754,1.58Z" transform="translate(0 0)"/></g></g><g transform="translate(23.363)"><path class="a" d="M5.411,0h5.411V10.85H0V0Z" transform="translate(0)"/><g class="f" transform="translate(0)"><path class="c" d="M5.411,10.85a5.425,5.425,0,1,1,5.411-5.425A5.424,5.424,0,0,1,5.411,10.85Zm0-9.891A4.466,4.466,0,1,0,9.865,5.425,4.465,4.465,0,0,0,5.411.959Z" transform="translate(0 0)"/></g></g><path class="d" d="M1.45,4.855H1.167V4.372A1.751,1.751,0,0,1,.581,4.21a1.022,1.022,0,0,1-.39-.376A1.36,1.36,0,0,1,0,3.2l.483-.091a1.236,1.236,0,0,0,.2.571.714.714,0,0,0,.487.287V2.43A1.987,1.987,0,0,1,.56,2.2.907.907,0,0,1,.2,1.843a1.094,1.094,0,0,1-.123-.517A1.048,1.048,0,0,1,.445.492,1.272,1.272,0,0,1,1.167.23V0H1.45V.23a1.179,1.179,0,0,1,.664.248,1.1,1.1,0,0,1,.38.72L2,1.273A.811.811,0,0,0,1.819.837a.644.644,0,0,0-.369-.2v1.39a3.972,3.972,0,0,1,.481.142,1.174,1.174,0,0,1,.365.241.968.968,0,0,1,.219.337,1.151,1.151,0,0,1,.076.423A1.157,1.157,0,0,1,1.45,4.367v.487Zm0-2.358V3.965a.715.715,0,0,0,.463-.244A.755.755,0,0,0,2.1,3.2a.652.652,0,0,0-.13-.423A1.126,1.126,0,0,0,1.45,2.5ZM1.167.632A.716.716,0,0,0,.725.858a.629.629,0,0,0-.161.431A.628.628,0,0,0,.7,1.7a.928.928,0,0,0,.467.266Z" transform="translate(27.478 2.892)"/></g></g></svg>