<svg xmlns="http://www.w3.org/2000/svg" xmlns:xlink="http://www.w3.org/1999/xlink" viewBox="0 0 35 35"><defs><style>.a{fill:none;}.b{fill:rgba(0,0,0,0);}.c{fill:#868f98;}.d{clip-path:url(#a);}.e{clip-path:url(#b);}.f{fill:#5a5b5d;}</style><clipPath id="a"><path class="a" d="M0,0V9.358H9.319V0H0Z"/></clipPath><clipPath id="b"><path class="a" d="M27.937,0H0V28.129H27.937V0Z"/></clipPath></defs><rect class="b" width="35" height="35"/><g transform="translate(3.769 3.671)"><path class="c" d="M3.548,14.788h0a22.453,22.453,0,0,1-2.055-1.833C.955,12.412.453,11.856,0,11.3,2.648,8.916,4.768,7.006,4.895,6.89a.753.753,0,0,0,.224-.852,4.11,4.11,0,0,1,.116-3.4A4.244,4.244,0,0,1,7.147.6,6.34,6.34,0,0,1,9.271,0l.039,0a.226.226,0,0,1,.2.092.3.3,0,0,1-.021.286C9.336.688,8.233,3,8.222,3.028a1.349,1.349,0,0,0-.037,1.144A2.675,2.675,0,0,0,9.559,5.38a3.267,3.267,0,0,0,1.379.375,1.334,1.334,0,0,0,1.282-.8c.012-.025,1.194-2.51,1.263-2.651a.324.324,0,0,1,.266-.179.253.253,0,0,1,.215.146,6.442,6.442,0,0,1,.862,2.039,4.282,4.282,0,0,1-.38,2.77,4.1,4.1,0,0,1-1.673,1.844,4.556,4.556,0,0,1-2.265.571,5.789,5.789,0,0,1-1.586-.227L8.9,9.264a.635.635,0,0,0-.189-.034.572.572,0,0,0-.422.226c-.109.121-2.253,2.536-4.736,5.332ZM8.09,1.188A3.33,3.33,0,0,0,6.054,3.031,3.175,3.175,0,0,0,5.962,5.7a1.666,1.666,0,0,1-.456,1.872c-.1.093-1.327,1.2-3.357,3.025l0,0-.875.788c.276.31.567.62.865.92.434.436.877.847,1.314,1.222L7.612,8.84a1.452,1.452,0,0,1,1.1-.526,1.542,1.542,0,0,1,.459.076h0a4.9,4.9,0,0,0,1.339.192,3.3,3.3,0,0,0,3.118-1.9,3.384,3.384,0,0,0,.123-2.822L13.04,5.353a2.245,2.245,0,0,1-2.1,1.318,4.15,4.15,0,0,1-1.773-.465A3.53,3.53,0,0,1,7.353,4.541,2.263,2.263,0,0,1,7.4,2.632Z" transform="translate(11.573 2.021)"/><g transform="translate(0 19.151)"><path class="a" d="M0,0V9.358H9.319V0H0Z" transform="translate(0 0)"/><g class="d" transform="translate(0 0)"><path class="c" d="M3.267,9.358h0A3.251,3.251,0,0,1,1.089,8.52,3.315,3.315,0,0,1,.831,3.868c.084-.092.171-.179.258-.258L5.1,0c.6.7,1.222,1.372,1.84,1.994.729.734,1.53,1.473,2.38,2.2L5.706,8.26A3.266,3.266,0,0,1,3.267,9.358ZM5.023,1.3,1.7,4.289c-.074.067-.144.139-.189.188A2.4,2.4,0,0,0,1.7,7.838,2.349,2.349,0,0,0,5.029,7.65L8.024,4.275c-.615-.548-1.2-1.1-1.73-1.634C5.86,2.2,5.433,1.75,5.023,1.3Z" transform="translate(0.002 0)"/></g></g><g transform="translate(0 0)"><path class="a" d="M27.937,0H0V28.129H27.937V0Z" transform="translate(0 0)"/><g class="e" transform="translate(0 0)"><path class="f" d="M20.756,28.13h0a19.471,19.471,0,0,1-5.921-2.752,40.094,40.094,0,0,1-6.734-5.4,40.285,40.285,0,0,1-5.367-6.781A19.79,19.79,0,0,1,0,7.231,8.441,8.441,0,0,1,.369,5.35,9.285,9.285,0,0,1,2.556,1.607L4.007.145a.49.49,0,0,1,.7,0l6.157,6.2a.507.507,0,0,1,0,.706l-1.4,1.41-.049.051,0-.007L7.712,9.88a7.738,7.738,0,0,0,.751,1.785A19.841,19.841,0,0,0,11.9,16.144c3.591,3.617,6.194,4.215,6.22,4.221l1.365-1.7,0-.005,1.451-1.463a.487.487,0,0,1,.349-.144.494.494,0,0,1,.351.144l6.158,6.2a.5.5,0,0,1,0,.7L26.341,25.56v0a9.162,9.162,0,0,1-3.716,2.2A8.253,8.253,0,0,1,20.756,28.13ZM4.355,1.089,3.285,2.166l-.08.082A8.632,8.632,0,0,0,.916,7.17,19.824,19.824,0,0,0,3.49,12.693a38.677,38.677,0,0,0,5.255,6.633,38.457,38.457,0,0,0,6.59,5.293,19.492,19.492,0,0,0,5.484,2.587A8.367,8.367,0,0,0,25.7,24.9l.256-.252.9-.905-5.571-5.61L20.2,19.227,18.48,21.378l-.548-.119c-.116-.025-2.894-.664-6.671-4.467s-4.413-6.6-4.438-6.718l-.118-.551L8.845,7.781,9.925,6.7Z" transform="translate(0 0)"/></g></g></g></svg>