<svg xmlns="http://www.w3.org/2000/svg" viewBox="0 0 35 35"><defs><style>.a{fill:rgba(0,0,0,0);}.b{fill:#5a5b5d;}.c{fill:#868f98;}</style></defs><rect class="a" width="35" height="35"/><g transform="translate(1.554 2.091)"><path class="b" d="M26.242,25.951H3.35V13.417L.99,15.791,0,14.783,14.838,0h0l0,0,0,0L29.67,14.783l-1.023,1.008-2.405-2.374V25.951Zm-15.262-9.5h7.153v8.077h6.677V11.991L14.8,2.014,4.781,11.991V24.526h6.2V16.449Z" transform="translate(0 5.643)"/><g transform="translate(21.785 0)"><path class="c" d="M5.336,12.434C2.7,12.434,0,12.026,0,9A6.591,6.591,0,0,1,1.325,5.547,7.189,7.189,0,0,1,4.244,2.986,6.651,6.651,0,0,1,2.968.8.388.388,0,0,1,3.081.375.4.4,0,0,1,3.335.283a.393.393,0,0,1,.191.049,1.985,1.985,0,0,0,.805.231c.062,0,.087-.013.208-.151l0,0a.966.966,0,0,1,1.578,0l0,0c.125.139.148.151.211.151A1.969,1.969,0,0,0,7.143.332a.4.4,0,0,1,.193-.05.392.392,0,0,1,.252.091A.388.388,0,0,1,7.7.8,6.651,6.651,0,0,1,6.428,2.986,7.185,7.185,0,0,1,9.345,5.547,6.594,6.594,0,0,1,10.669,9C10.669,12.026,7.973,12.434,5.336,12.434Zm0-9.138h0l-.825.338C2.7,4.375.7,7.183.7,9c0,1.968,1.3,2.735,4.632,2.735S9.966,10.967,9.966,9c0-1.817-1.992-4.625-3.805-5.366L5.336,3.3ZM3.9,1.213A4.744,4.744,0,0,0,4.74,2.49l.6.591.6-.591a4.741,4.741,0,0,0,.839-1.278,2.016,2.016,0,0,1-.437.051A.942.942,0,0,1,5.6.875C5.461.724,5.424.7,5.332.7S5.2.724,5.069.872a.927.927,0,0,1-.738.391A2,2,0,0,1,3.9,1.213Z" transform="translate(0 0)"/><path class="b" d="M1.308,4.349H1.053V3.916a1.6,1.6,0,0,1-.529-.145.91.91,0,0,1-.352-.337A1.216,1.216,0,0,1,0,2.865l.437-.082a1.066,1.066,0,0,0,.179.512.631.631,0,0,0,.438.257V2.176A1.832,1.832,0,0,1,.506,1.97a.815.815,0,0,1-.32-.319.939.939,0,0,1-.111-.464A.945.945,0,0,1,.4.441,1.149,1.149,0,0,1,1.053.206V0h.255V.206a1.075,1.075,0,0,1,.6.221.985.985,0,0,1,.343.646L1.8,1.14a.732.732,0,0,0-.16-.39A.588.588,0,0,0,1.308.571V1.817a3.4,3.4,0,0,1,.434.127,1.062,1.062,0,0,1,.33.216.879.879,0,0,1,.2.3,1.036,1.036,0,0,1,.068.379,1.046,1.046,0,0,1-.286.748,1.066,1.066,0,0,1-.743.322v.437Zm0-2.112V3.551a.645.645,0,0,0,.42-.219.68.68,0,0,0,.163-.462.584.584,0,0,0-.117-.378A.994.994,0,0,0,1.308,2.237ZM1.053.567a.648.648,0,0,0-.4.2.565.565,0,0,0-.145.386.554.554,0,0,0,.123.369.86.86,0,0,0,.42.237Z" transform="translate(4.157 5.726)"/></g></g></svg>