<svg xmlns="http://www.w3.org/2000/svg" viewBox="0 0 64.85 61.85"><defs><style>.a{fill:#007b2e;stroke:#007b2e;stroke-miterlimit:10;stroke-width:0.85px;}</style></defs><path class="a" d="M32,61a14.483,14.483,0,0,1-13.657-9.849H1.036A1.043,1.043,0,0,1,0,50.1V1.047A1.043,1.043,0,0,1,1.036,0H62.964A1.043,1.043,0,0,1,64,1.047V50.1a1.043,1.043,0,0,1-1.036,1.047H45.657A14.481,14.481,0,0,1,32,61ZM21.969,12.307h0L2.072,30.641V49.057h15.72a14.907,14.907,0,0,1-.252-2.666,14.46,14.46,0,1,1,28.667,2.665H61.928v-17.5l-8.4-8.074-9.3,8.964a1.026,1.026,0,0,1-1.431,0L21.969,12.308Zm.016-2.479a1.026,1.026,0,0,1,.716.291L43.512,30.242l9.3-8.96a1.029,1.029,0,0,1,1.429,0l7.688,7.389V2.093H2.072V27.807L21.288,10.1A1.024,1.024,0,0,1,21.985,9.828Z" transform="translate(0.425 0.425)"/></svg>