<svg xmlns="http://www.w3.org/2000/svg" viewBox="0 0 63 69.053"><defs><style>.a{fill:none;stroke:#007b2e;stroke-miterlimit:10;stroke-width:3px;}.b{fill:#8cc63e;}</style></defs><g transform="translate(1.5 1.5)"><path class="a" d="M30,0A46.224,46.224,0,0,0,0,10.922V31.977H.176C1.74,48.068,13.594,61.587,30,66c16.406-4.413,28.26-17.932,29.82-34.023H60V10.922A46.224,46.224,0,0,0,30,0"/><path class="b" d="M3.158,0A3.082,3.082,0,0,0,0,3,3.082,3.082,0,0,0,3.158,6,3.082,3.082,0,0,0,6.316,3,3.082,3.082,0,0,0,3.158,0" transform="translate(26.316 43)"/><path class="b" d="M9.451.015A8.842,8.842,0,0,0,.013,8.145C0,8.327,0,8.513,0,8.695V8.7A2.372,2.372,0,0,0,2.435,11,2.367,2.367,0,0,0,4.846,8.7,4.372,4.372,0,0,1,9.061,4.141c.128-.011.259-.011.39-.011a4.472,4.472,0,0,1,4.654,4.265c0,.086,0,.171,0,.257a5.566,5.566,0,0,1-1.47,3.436L8.72,17.406a6.46,6.46,0,0,0-1.613,4.475v.864A2.31,2.31,0,0,0,9.474,25a2.31,2.31,0,0,0,2.366-2.254v-.639a4.67,4.67,0,0,1,.964-2.44l3.863-5.454a9,9,0,0,0,2.28-5.561A8.75,8.75,0,0,0,10.1,0c-.214,0-.431,0-.649.014" transform="translate(20 14)"/></g></svg>