<svg xmlns="http://www.w3.org/2000/svg" viewBox="0 0 61.7 85.09"><defs><style>.a{fill:#8cc63e;}.b{fill:none;stroke:#007b2e;stroke-miterlimit:10;stroke-width:3.4px;}</style></defs><g transform="translate(-603 -290)"><g transform="translate(603 290)"><path class="a" d="M4.576,0A4.576,4.576,0,1,1,0,4.576,4.576,4.576,0,0,1,4.576,0"/><path class="a" d="M4.576,0A4.576,4.576,0,1,1,0,4.576,4.576,4.576,0,0,1,4.576,0" transform="translate(14.237)"/><path class="a" d="M4.576,0A4.576,4.576,0,1,1,0,4.576,4.576,4.576,0,0,1,4.576,0" transform="translate(28.475)"/><path class="a" d="M4.576,0A4.576,4.576,0,1,1,0,4.576,4.577,4.577,0,0,1,4.576,0" transform="translate(0 14.237)"/><path class="a" d="M4.576,0A4.576,4.576,0,1,1,0,4.576,4.576,4.576,0,0,1,4.576,0" transform="translate(14.237 14.237)"/><path class="a" d="M4.576,0A4.576,4.576,0,1,1,0,4.576,4.577,4.577,0,0,1,4.576,0" transform="translate(28.475 14.237)"/><path class="a" d="M4.576,0A4.576,4.576,0,1,1,0,4.576,4.576,4.576,0,0,1,4.576,0" transform="translate(0 28.475)"/><path class="a" d="M4.576,0A4.576,4.576,0,1,1,0,4.576,4.576,4.576,0,0,1,4.576,0" transform="translate(14.237 28.475)"/><path class="b" d="M39.983,19.968a4.048,4.048,0,0,0-3.659,1.374,4.2,4.2,0,0,0-4.094-3.178,4.368,4.368,0,0,0-3.224,1.46A4.123,4.123,0,0,0,25,16.7a4.033,4.033,0,0,0-2.962,1.2V4.334a4.294,4.294,0,0,0-3.659-4.3,4.178,4.178,0,0,0-4.791,4.123V30.19a.575.575,0,0,1-1.045.344l-4.878-7.3C6.531,21.514,4,21.17,2,22.373.084,23.661-.613,26.067.607,27.785c0,0,13.765,20.53,13.851,20.616a13.476,13.476,0,0,0,10.889,5.5h4.878a13.429,13.429,0,0,0,13.5-13.057V24.349A4.528,4.528,0,0,0,39.983,19.968Z" transform="translate(16.271 29.492)"/></g></g></svg>