<?xml version="1.0" encoding="UTF-8"?>
<svg width="35px" height="43px" viewBox="0 0 35 43" version="1.1" xmlns="http://www.w3.org/2000/svg" xmlns:xlink="http://www.w3.org/1999/xlink">
    <!-- Generator: sketchtool 51.1 (57501) - http://www.bohemiancoding.com/sketch -->
    <title>CE392B12-1516-45B3-AFA0-EEF58F84CF52</title>
    <desc>Created with sketchtool.</desc>
    <defs></defs>
    <g id="Leasing" stroke="none" stroke-width="1" fill="none" fill-rule="evenodd">
        <g id="FB-Auto-Landing-Leasing" transform="translate(-195.000000, -1408.000000)" fill="#FFFFFF">
            <g id="content" transform="translate(0.000000, 212.000000)">
                <g id="calculadora" transform="translate(132.000000, 1167.000000)">
                    <g id="ico_calculator" transform="translate(63.000000, 29.000000)">
                        <polygon id="Fill-4" points="6 19.5294118 8.5 19.5294118 8.5 17 10.1125 17 10.1125 19.5294118 12.6125 19.5294118 12.6125 21.1355882 10.1125 21.1355882 10.1125 23.665 8.5375 23.665 8.5375 21.1355882 6.0375 21.1355882"></polygon>
                        <polygon id="Fill-6" points="7.13125 31.0126471 8.90625 32.8091618 10.69375 31 11.83125 32.1515147 10.04375 33.9594118 11.81875 35.7552941 10.7 36.8941618 8.925 35.0976471 7.1375 36.9004853 6 35.7489706 7.7875 33.9277941 6.0125 32.1515147"></polygon>
                        <polygon id="Fill-8" points="22 21.6188235 22 20 28.630625 20 28.630625 21.6251471"></polygon>
                        <polygon id="Fill-10" points="22 32.6245147 28.630625 32.6245147 28.630625 31 22 31"></polygon>
                        <polygon id="Fill-12" points="22 35.6188235 22 34 28.630625 34 28.630625 35.6257794"></polygon>
                        <path d="M32.25,13.2667647 L2.49996086,13.2667647 L2.5,2.98470588 C2.496875,2.75073529 2.68125,2.5585 2.9125,2.55470588 L2.925,2.55470588 L31.825,2.55470588 C32.05625,2.55154412 32.246875,2.73808824 32.25,2.97205882 L32.25,2.98470588 L32.25,13.2667647 Z M18.33125,26.2742647 L32.25,26.2742647 L32.25,15.2017647 L18.33125,15.2017647 L18.33125,26.2742647 Z M32.25,39.5536765 C32.25,39.7908088 32.059375,39.9836765 31.825,39.9836765 L18.33125,39.9836765 L18.33125,28.2092647 L32.25,28.2092647 L32.25,39.5536765 Z M2.5,26.2742647 L16.41875,26.2742647 L16.41875,15.2017647 L2.5,15.2017647 L2.5,26.2742647 Z M16.41875,39.9773529 L2.925,39.9773529 C2.690625,39.9773529 2.5,39.7851176 2.5,39.5479853 L2.5,28.2092647 L16.41875,28.2092647 L16.41875,39.9773529 Z M31.825,0 L2.925,0 C1.31,0 0,1.32477941 0,2.95941176 C0,2.96763235 0,2.97648529 0,2.98470588 L0,39.5479853 C0,41.1819853 1.31,42.5067647 2.925,42.5067647 L31.825,42.5067647 C33.440625,42.5067647 34.75,41.1819853 34.75,39.5479853 L34.75,2.98470588 C34.76375,1.35070588 33.465625,0.0139117647 31.85,0.000632352941 C31.841875,0.000632352941 31.83375,0 31.825,0 Z" id="Fill-13"></path>
                    </g>
                </g>
            </g>
        </g>
    </g>
</svg>