<svg xmlns="http://www.w3.org/2000/svg" viewBox="0 0 45.6 41.8"><defs><style>.a{fill:none;stroke:#007b2e;stroke-miterlimit:10;stroke-width:1.9px;}.b{fill:#8cc63e;}</style></defs><g transform="translate(0.95 0.95)"><path class="a" d="M37.406,0H6.234A6.29,6.29,0,0,0,0,6.355V25.663a6.291,6.291,0,0,0,6.234,6.355h21.4l7.014,7.148a2.344,2.344,0,0,0,1.678.734,2.831,2.831,0,0,0,1.678-.611,2.749,2.749,0,0,0,.719-1.772V31.835A6.386,6.386,0,0,0,43.7,25.6V6.355A6.264,6.264,0,0,0,37.406,0Z"/><path class="b" d="M4.8,19.98A.956.956,0,0,1,3.836,19v-1.65a.956.956,0,0,1,.959-.977H7.313a.956.956,0,0,1,.959.977V19a.956.956,0,0,1-.959.977Zm-.239-5.621a.668.668,0,0,1-.72-.733,3.87,3.87,0,0,1,.6-2.078,9.868,9.868,0,0,1,2.4-2.2,4.371,4.371,0,0,0,1.38-1.4,3.685,3.685,0,0,0,.539-1.956,2.494,2.494,0,0,0-.6-1.832,2.139,2.139,0,0,0-1.678-.672,2.165,2.165,0,0,0-1.5.55,2.31,2.31,0,0,0-.54.916,1.046,1.046,0,0,1-1.018.734L.6,5.621A.623.623,0,0,1,0,4.949,4.7,4.7,0,0,1,1.738,1.4,7.562,7.562,0,0,1,6.474,0,7.118,7.118,0,0,1,11.45,1.65a5.681,5.681,0,0,1,1.8,4.4,5.444,5.444,0,0,1-.959,3.117,7.369,7.369,0,0,1-2.517,2.2,3.082,3.082,0,0,0-1.139,1.221,2.972,2.972,0,0,0-.3,1.161.715.715,0,0,1-.719.611Z" transform="translate(15.166 5.928)"/></g></svg>