<svg xmlns="http://www.w3.org/2000/svg" viewBox="0 0 37 34"><defs><style>.a{fill:#8cc63e;}</style></defs><path class="a" d="M30.757,34a1.983,1.983,0,0,1-1.421-.625L23.4,27.284H5.279A5.354,5.354,0,0,1,0,21.868V5.415A5.354,5.354,0,0,1,5.279,0H31.763A5.334,5.334,0,0,1,37,5.415v16.4a5.435,5.435,0,0,1-4.213,5.31V31.97A1.934,1.934,0,0,1,30.757,34ZM16.9,19.005a.814.814,0,0,0-.813.833v1.406a.814.814,0,0,0,.813.833h2.132a.814.814,0,0,0,.812-.833V19.838a.814.814,0,0,0-.812-.833ZM18.322,8.019a1.8,1.8,0,0,1,1.421.572,2.135,2.135,0,0,1,.508,1.562,3.176,3.176,0,0,1-.456,1.666,3.681,3.681,0,0,1-1.168,1.2,8.433,8.433,0,0,0-2.03,1.874,3.309,3.309,0,0,0-.508,1.77.508.508,0,0,0,.121.416.644.644,0,0,0,.49.21h2.588a.608.608,0,0,0,.608-.521,2.556,2.556,0,0,1,.254-.989,2.63,2.63,0,0,1,.965-1.041,6.286,6.286,0,0,0,2.131-1.875,4.621,4.621,0,0,0,.813-2.655,4.879,4.879,0,0,0-1.523-3.749,6,6,0,0,0-4.213-1.406,6.42,6.42,0,0,0-4.01,1.2,4.032,4.032,0,0,0-1.471,3.019.531.531,0,0,0,.508.573l2.385.052a.883.883,0,0,0,.862-.626,1.987,1.987,0,0,1,.457-.78A1.822,1.822,0,0,1,18.322,8.019Z"/></svg>