<svg xmlns="http://www.w3.org/2000/svg" viewBox="0 0 65 61"><defs><style>.a{fill:#007b2e;}.b{fill:#8cc63e;}</style></defs><path class="a" d="M61.75,50.833H3.25A3.163,3.163,0,0,1,0,47.784V1.017A1.053,1.053,0,0,1,1.084,0H63.917A1.053,1.053,0,0,1,65,1.017V47.784A3.163,3.163,0,0,1,61.75,50.833ZM2.166,2.033V47.784A1.054,1.054,0,0,0,3.25,48.8h58.5a1.055,1.055,0,0,0,1.084-1.016V2.033Z" transform="translate(0 10.167)"/><path class="a" d="M63.917,12.2H1.084A1.053,1.053,0,0,1,0,11.183V3.05A3.163,3.163,0,0,1,3.25,0h58.5A3.163,3.163,0,0,1,65,3.05v8.133A1.053,1.053,0,0,1,63.917,12.2ZM3.25,2.033A1.053,1.053,0,0,0,2.166,3.05v7.116H62.833V3.05A1.054,1.054,0,0,0,61.75,2.033Z"/><path class="b" d="M3.25,2.033H1.083A1.052,1.052,0,0,1,0,1.017,1.052,1.052,0,0,1,1.083,0H3.25A1.052,1.052,0,0,1,4.333,1.017,1.052,1.052,0,0,1,3.25,2.033" transform="translate(9.75 5.083)"/><path class="b" d="M3.25,2.033H1.083A1.052,1.052,0,0,1,0,1.017,1.052,1.052,0,0,1,1.083,0H3.25A1.052,1.052,0,0,1,4.333,1.017,1.052,1.052,0,0,1,3.25,2.033" transform="translate(16.25 5.083)"/><path class="b" d="M1.083,4.067h0A1.051,1.051,0,0,1,0,3.05H0V1.017A1.052,1.052,0,0,1,1.083,0,1.052,1.052,0,0,1,2.167,1.017V3.05h0A1.052,1.052,0,0,1,1.083,4.067Z" transform="translate(17.333 4.067)"/><path class="b" d="M1.084,2.039h0a1.716,1.716,0,0,1-.217-.02.721.721,0,0,1-.195-.061.873.873,0,0,1-.2-.091L.314,1.744A.986.986,0,0,1,.314.3,1.134,1.134,0,0,1,1.846.295a.987.987,0,0,1,.321.728A1.04,1.04,0,0,1,1.1,2.039Z" transform="translate(5.416 5.077)"/><path class="b" d="M15.167,13.217h-13A2.108,2.108,0,0,1,0,11.183V2.033A2.108,2.108,0,0,1,2.166,0h13a2.108,2.108,0,0,1,2.166,2.033v9.15A2.108,2.108,0,0,1,15.167,13.217Zm-13-11.183v9.15h13V2.033Z" transform="translate(7.583 32.533)"/><path class="b" d="M11.917,10.167h0A1.051,1.051,0,0,1,10.833,9.15h0V6.1A4.207,4.207,0,0,0,6.5,2.033,4.207,4.207,0,0,0,2.167,6.1V9.15a1.052,1.052,0,0,1-1.083,1.017A1.052,1.052,0,0,1,0,9.15V6.1A6.31,6.31,0,0,1,6.5,0,6.31,6.31,0,0,1,13,6.1V9.15h0a1.052,1.052,0,0,1-1.083,1.017Z" transform="translate(9.75 24.4)"/><path class="b" d="M26,10.166H2.166A2.108,2.108,0,0,1,0,8.133v-6.1A2.108,2.108,0,0,1,2.166,0H26a2.108,2.108,0,0,1,2.166,2.033v6.1A2.108,2.108,0,0,1,26,10.166ZM2.166,2.033v6.1H26v-6.1Z" transform="translate(29.25 23.383)"/><path class="b" d="M2.167,2.033H1.083A1.051,1.051,0,0,1,0,1.017,1.051,1.051,0,0,1,1.083,0H2.167A1.051,1.051,0,0,1,3.25,1.017,1.051,1.051,0,0,1,2.167,2.033" transform="translate(33.583 27.45)"/><path class="b" d="M2.167,2.033H1.083A1.051,1.051,0,0,1,0,1.017,1.051,1.051,0,0,1,1.083,0H2.167A1.051,1.051,0,0,1,3.25,1.017,1.051,1.051,0,0,1,2.167,2.033" transform="translate(39 27.45)"/><path class="b" d="M2.167,2.033H1.083A1.051,1.051,0,0,1,0,1.017,1.051,1.051,0,0,1,1.083,0H2.167A1.051,1.051,0,0,1,3.25,1.017,1.051,1.051,0,0,1,2.167,2.033" transform="translate(44.417 27.45)"/><path class="b" d="M2.167,2.033H1.083A1.051,1.051,0,0,1,0,1.017,1.051,1.051,0,0,1,1.083,0H2.167A1.051,1.051,0,0,1,3.25,1.017,1.051,1.051,0,0,1,2.167,2.033" transform="translate(49.833 27.45)"/><path class="b" d="M26,10.166H2.166A2.108,2.108,0,0,1,0,8.133v-6.1A2.108,2.108,0,0,1,2.166,0H26a2.108,2.108,0,0,1,2.166,2.033v6.1A2.108,2.108,0,0,1,26,10.166ZM2.166,2.033v6.1H26v-6.1Z" transform="translate(29.25 35.583)"/><path class="b" d="M2.167,2.033H1.083A1.051,1.051,0,0,1,0,1.017,1.051,1.051,0,0,1,1.083,0H2.167A1.051,1.051,0,0,1,3.25,1.017,1.051,1.051,0,0,1,2.167,2.033" transform="translate(33.583 39.65)"/><path class="b" d="M2.167,2.033H1.083A1.051,1.051,0,0,1,0,1.017,1.051,1.051,0,0,1,1.083,0H2.167A1.051,1.051,0,0,1,3.25,1.017,1.051,1.051,0,0,1,2.167,2.033" transform="translate(39 39.65)"/><path class="b" d="M2.167,2.033H1.083A1.051,1.051,0,0,1,0,1.017,1.051,1.051,0,0,1,1.083,0H2.167A1.051,1.051,0,0,1,3.25,1.017,1.051,1.051,0,0,1,2.167,2.033" transform="translate(44.417 39.65)"/><path class="b" d="M2.167,2.033H1.083A1.051,1.051,0,0,1,0,1.017,1.051,1.051,0,0,1,1.083,0H2.167A1.051,1.051,0,0,1,3.25,1.017,1.051,1.051,0,0,1,2.167,2.033" transform="translate(49.833 39.65)"/><path class="b" d="M1.083,3.05h0A1.051,1.051,0,0,1,0,2.034H0V1.017A1.052,1.052,0,0,1,1.083,0,1.052,1.052,0,0,1,2.167,1.017V2.033A1.051,1.051,0,0,1,1.083,3.05Z" transform="translate(15.167 37.617)"/></svg>