<svg xmlns="http://www.w3.org/2000/svg" xmlns:xlink="http://www.w3.org/1999/xlink" viewBox="0 0 40.19 45.93"><defs><style>.a{fill:none;}.b{clip-path:url(#a);}.c{fill:#007b2e;}.d{clip-path:url(#b);}.e{fill:#8cc63e;}</style><clipPath id="a"><path class="a" d="M19.882,45.93l-1.775,0-1.557,0a.857.857,0,0,1-.636-.211.818.818,0,0,1-.19-.625c.014-.467.025-.968.005-1.467a.787.787,0,0,1,.177-.6.728.728,0,0,1,.545-.2c1.123-.01,2.063-.014,2.957-.014,1.073,0,2.094.008,3.122.023a.825.825,0,0,1,.63.436c.085.329.241.476.509.476a1.871,1.871,0,0,0,.418-.069l.047-.011a17.447,17.447,0,0,0,8.131-4.416,16.467,16.467,0,0,0,4.694-8.062,13.96,13.96,0,0,0,.3-2.248c.023-.3.051-.644.086-.974a.6.6,0,0,0-.105-.484.7.7,0,0,0-.538-.178c-.773-.012-1-.24-1-1.019q0-.551,0-1.1v-.046q0-.243,0-.486v-.042q0-.264,0-.528v-.2q0-2.4,0-4.807c0-.643.227-.894.811-.894l.08,0h.089a.7.7,0,0,0,.528-.167.846.846,0,0,0,.154-.65A16,16,0,0,0,31.483,5.465a16.464,16.464,0,0,0-10.971-4.2c-.51,0-1.033.023-1.556.069-6.734.591-11.615,3.9-14.508,9.827A14.96,14.96,0,0,0,2.9,17.448a.775.775,0,0,0,.141.58.668.668,0,0,0,.5.149h.115c.612,0,.819.228.82.9.005,2.614,0,5.175,0,7.336,0,.678-.252.922-.958.931-.411,0-.766.006-1.085.006-.548,0-1.037,0-1.493-.014C.246,27.323,0,27.079,0,26.4c0-.722,0-1.537,0-2.643V22.7c0-.327,0-.657.005-.977V21.51q0-1.153,0-2.382a1.11,1.11,0,0,1,.172-.778.9.9,0,0,1,.663-.166H.988c.52,0,.636-.25.662-.681.436-7.4,4.107-12.73,10.912-15.843A17.85,17.85,0,0,1,20.03,0a19.094,19.094,0,0,1,6.287,1.1A18.038,18.038,0,0,1,37.7,12.248a12.453,12.453,0,0,1,.906,5.3.612.612,0,0,0,.107.469.647.647,0,0,0,.482.156c.843.021.992.169.992.989q0,3.474,0,7.1v.042c0,.845-.146.987-1.039,1.016-.4.013-.542.152-.539.534A16.458,16.458,0,0,1,35.09,38a18.958,18.958,0,0,1-8.946,6.406c-.548.183-1.124.32-1.682.452l-.027.006-.031.007-.168.04-.13.03c-.426.1-.829.185-1.012.693-.058.158-.442.281-.663.283C21.648,45.926,20.838,45.93,19.882,45.93Zm-1.449-1.88c-.343,0-.62.006-.871.019a.947.947,0,0,0-.4.159c-.06.035-.122.071-.183.1a1.927,1.927,0,0,1,.168.132.687.687,0,0,0,.364.207c.715.018,1.464.027,2.228.027.554,0,1.132,0,1.72-.014a.654.654,0,0,0,.34-.177,1.8,1.8,0,0,1,.158-.114,1.932,1.932,0,0,1-.163-.127.7.7,0,0,0-.354-.2c-.259-.016-.543-.023-.9-.023-.179,0-.359,0-.538,0s-.36,0-.538,0v.014l-.518,0Zm18.6-21.331c0,.246,0,.491,0,.737-.005.635-.011,1.355.024,2.058.01.2.286.423.469.516a.449.449,0,0,0,.207.04c.063,0,.126-.005.174-.01h.013l.027,0c.047,0,.094-.006.14-.006a.84.84,0,0,1,.087,0,1.528,1.528,0,0,0,.184.013.565.565,0,0,0,.422-.141.8.8,0,0,0,.16-.593c-.016-.967-.013-1.951-.01-2.9v-.119c0-.521,0-1.111,0-1.685,0-1.1,0-1.213-.905-1.213l-.319,0h-.088a.617.617,0,0,0-.457.137.576.576,0,0,0-.115.427c.015.661.013,1.328.01,1.974q0,.382,0,.762Zm-35.176-3.3a.592.592,0,0,0-.449.148.731.731,0,0,0-.138.554c.026.6.021,1.2.015,1.789v.04c0,.251-.005.52-.005.78h.008c0,.235,0,.47,0,.705v.006c0,.558,0,1.134-.005,1.707-.007.443-.011.666.1.781s.348.119.776.125h.2c.1,0,.189,0,.27,0,.386,0,.573-.179.573-.542q0-.83,0-1.66v-.1c0-1.233,0-2.507-.005-3.774a.514.514,0,0,0-.577-.58c-.029,0-.061,0-.1,0H2.5c-.1.008-.234.019-.359.019-.037,0-.094,0-.15-.005S1.905,19.416,1.856,19.416Z"/></clipPath><clipPath id="b"><path class="a" d="M14.72,36.073h0A8.6,8.6,0,0,1,9.658,34.3,20.3,20.3,0,0,1,3.93,27.465,31.389,31.389,0,0,1,.168,16.708,14.482,14.482,0,0,1,1.879,7.281,14.659,14.659,0,0,1,9.408.939,13.884,13.884,0,0,1,14.392,0c.249,0,.48.006.7.018a13.871,13.871,0,0,1,8.464,2.805A15.125,15.125,0,0,1,28.416,8.9a14.278,14.278,0,0,1,.857,7.647,30.662,30.662,0,0,1-6,14.264,16.433,16.433,0,0,1-3.923,3.754A8.214,8.214,0,0,1,14.72,36.073Zm.172-34.259a13.88,13.88,0,0,0-3.732.525C5.581,3.9,2.189,8.4,1.856,14.676c.039.237.08.517.127.842.122.843.274,1.893.508,2.939a28.611,28.611,0,0,0,4.315,10,17.279,17.279,0,0,0,4.173,4.453,6.351,6.351,0,0,0,3.706,1.293,6.527,6.527,0,0,0,3.536-1.134A16.73,16.73,0,0,0,23.265,27.5,30.327,30.327,0,0,0,27.2,17.409c.859-4.364-.012-7.973-2.662-11.032A12.509,12.509,0,0,0,14.892,1.815Z"/></clipPath></defs><path class="a" d="M19.882,45.93l-1.775,0-1.557,0a.857.857,0,0,1-.636-.211.818.818,0,0,1-.19-.625c.014-.467.025-.968.005-1.467a.787.787,0,0,1,.177-.6.728.728,0,0,1,.545-.2c1.123-.01,2.063-.014,2.957-.014,1.073,0,2.094.008,3.122.023a.825.825,0,0,1,.63.436c.085.329.241.476.509.476a1.871,1.871,0,0,0,.418-.069l.047-.011a17.447,17.447,0,0,0,8.131-4.416,16.467,16.467,0,0,0,4.694-8.062,13.96,13.96,0,0,0,.3-2.248c.023-.3.051-.644.086-.974a.6.6,0,0,0-.105-.484.7.7,0,0,0-.538-.178c-.773-.012-1-.24-1-1.019q0-.551,0-1.1v-.046q0-.243,0-.486v-.042q0-.264,0-.528v-.2q0-2.4,0-4.807c0-.643.227-.894.811-.894l.08,0h.089a.7.7,0,0,0,.528-.167.846.846,0,0,0,.154-.65A16,16,0,0,0,31.483,5.465a16.464,16.464,0,0,0-10.971-4.2c-.51,0-1.033.023-1.556.069-6.734.591-11.615,3.9-14.508,9.827A14.96,14.96,0,0,0,2.9,17.448a.775.775,0,0,0,.141.58.668.668,0,0,0,.5.149h.115c.612,0,.819.228.82.9.005,2.614,0,5.175,0,7.336,0,.678-.252.922-.958.931-.411,0-.766.006-1.085.006-.548,0-1.037,0-1.493-.014C.246,27.323,0,27.079,0,26.4c0-.722,0-1.537,0-2.643V22.7c0-.327,0-.657.005-.977V21.51q0-1.153,0-2.382a1.11,1.11,0,0,1,.172-.778.9.9,0,0,1,.663-.166H.988c.52,0,.636-.25.662-.681.436-7.4,4.107-12.73,10.912-15.843A17.85,17.85,0,0,1,20.03,0a19.094,19.094,0,0,1,6.287,1.1A18.038,18.038,0,0,1,37.7,12.248a12.453,12.453,0,0,1,.906,5.3.612.612,0,0,0,.107.469.647.647,0,0,0,.482.156c.843.021.992.169.992.989q0,3.474,0,7.1v.042c0,.845-.146.987-1.039,1.016-.4.013-.542.152-.539.534A16.458,16.458,0,0,1,35.09,38a18.958,18.958,0,0,1-8.946,6.406c-.548.183-1.124.32-1.682.452l-.027.006-.031.007-.168.04-.13.03c-.426.1-.829.185-1.012.693-.058.158-.442.281-.663.283C21.648,45.926,20.838,45.93,19.882,45.93Zm-1.449-1.88c-.343,0-.62.006-.871.019a.947.947,0,0,0-.4.159c-.06.035-.122.071-.183.1a1.927,1.927,0,0,1,.168.132.687.687,0,0,0,.364.207c.715.018,1.464.027,2.228.027.554,0,1.132,0,1.72-.014a.654.654,0,0,0,.34-.177,1.8,1.8,0,0,1,.158-.114,1.932,1.932,0,0,1-.163-.127.7.7,0,0,0-.354-.2c-.259-.016-.543-.023-.9-.023-.179,0-.359,0-.538,0s-.36,0-.538,0v.014l-.518,0Zm18.6-21.331c0,.246,0,.491,0,.737-.005.635-.011,1.355.024,2.058.01.2.286.423.469.516a.449.449,0,0,0,.207.04c.063,0,.126-.005.174-.01h.013l.027,0c.047,0,.094-.006.14-.006a.84.84,0,0,1,.087,0,1.528,1.528,0,0,0,.184.013.565.565,0,0,0,.422-.141.8.8,0,0,0,.16-.593c-.016-.967-.013-1.951-.01-2.9v-.119c0-.521,0-1.111,0-1.685,0-1.1,0-1.213-.905-1.213l-.319,0h-.088a.617.617,0,0,0-.457.137.576.576,0,0,0-.115.427c.015.661.013,1.328.01,1.974q0,.382,0,.762Zm-35.176-3.3a.592.592,0,0,0-.449.148.731.731,0,0,0-.138.554c.026.6.021,1.2.015,1.789v.04c0,.251-.005.52-.005.78h.008c0,.235,0,.47,0,.705v.006c0,.558,0,1.134-.005,1.707-.007.443-.011.666.1.781s.348.119.776.125h.2c.1,0,.189,0,.27,0,.386,0,.573-.179.573-.542q0-.83,0-1.66v-.1c0-1.233,0-2.507-.005-3.774a.514.514,0,0,0-.577-.58c-.029,0-.061,0-.1,0H2.5c-.1.008-.234.019-.359.019-.037,0-.094,0-.15-.005S1.905,19.416,1.856,19.416Z"/><g class="b"><path class="c" d="M0,57.163H51.692V0H0Z" transform="translate(-5.957 -5.819)"/></g><g transform="translate(6 5)"><path class="a" d="M14.72,36.073h0A8.6,8.6,0,0,1,9.658,34.3,20.3,20.3,0,0,1,3.93,27.465,31.389,31.389,0,0,1,.168,16.708,14.482,14.482,0,0,1,1.879,7.281,14.659,14.659,0,0,1,9.408.939,13.884,13.884,0,0,1,14.392,0c.249,0,.48.006.7.018a13.871,13.871,0,0,1,8.464,2.805A15.125,15.125,0,0,1,28.416,8.9a14.278,14.278,0,0,1,.857,7.647,30.662,30.662,0,0,1-6,14.264,16.433,16.433,0,0,1-3.923,3.754A8.214,8.214,0,0,1,14.72,36.073Zm.172-34.259a13.88,13.88,0,0,0-3.732.525C5.581,3.9,2.189,8.4,1.856,14.676c.039.237.08.517.127.842.122.843.274,1.893.508,2.939a28.611,28.611,0,0,0,4.315,10,17.279,17.279,0,0,0,4.173,4.453,6.351,6.351,0,0,0,3.706,1.293,6.527,6.527,0,0,0,3.536-1.134A16.73,16.73,0,0,0,23.265,27.5,30.327,30.327,0,0,0,27.2,17.409c.859-4.364-.012-7.973-2.662-11.032A12.509,12.509,0,0,0,14.892,1.815Z"/><g class="d"><path class="e" d="M0,47.308H40.947V0H0Z" transform="translate(-5.957 -5.819)"/></g></g></svg>