<svg xmlns="http://www.w3.org/2000/svg" viewBox="0 0 25.65 45.6"><defs><style>.a{fill:#007b2e;}.b{fill:#8cc63e;}</style></defs><g transform="translate(0 0)"><path class="a" d="M25.65,45.6H0V10.455A.685.685,0,0,1,.545,9.7L25.056.211,25.65,0ZM23.9,2.551,1.8,11.116V43.829H23.9Z"/><path class="b" d="M0,5.7H4.933V0H0Z" transform="translate(5.7 31.35)"/><path class="b" d="M0,5.7H4.933V0H0Z" transform="translate(5.7 24.7)"/><path class="b" d="M0,5.7H4.933V0H0Z" transform="translate(14.25 24.7)"/><path class="b" d="M0,12.35H4.933V0H0Z" transform="translate(14.25 31.35)"/><path class="b" d="M0,0H2.96V.786H1.048v.786H2.709v.765H1.048V3.8H0Z" transform="translate(7.892 16.15)"/><path class="b" d="M2.96,5.648H1.079V2.28H0V1.153A1.656,1.656,0,0,0,1.458,0H2.916V5.7Z" transform="translate(3.8 14.25)"/><path class="b" d="M0,2.85H1.263V0H0Z" transform="translate(11.4 17.1)"/><path class="b" d="M0,.917H1.24V0H0Z" transform="translate(11.4 15.675)"/><path class="b" d="M0,.055H.9V.539A.863.863,0,0,1,1.753,0h.22V.829a1.374,1.374,0,0,0-.353,0,.661.661,0,0,0-.5.177.627.627,0,0,0-.2.479V2.85H0Z" transform="translate(13.3 17.1)"/><path class="b" d="M1.48,2.814a1.309,1.309,0,0,1-1-.162A1,1,0,0,1,0,1.865H.927a.34.34,0,0,0,.165.3.668.668,0,0,0,.364.093.413.413,0,0,0,.47-.278A.487.487,0,0,0,1.444,1.7C.822,1.566.047,1.546.047.834A1.175,1.175,0,0,1,1.421.019a1.3,1.3,0,0,1,.9.168,1.024,1.024,0,0,1,.485.688H1.891A.242.242,0,0,0,1.762.648.629.629,0,0,0,1.444.576c-.164,0-.422,0-.422.2A1.52,1.52,0,0,0,2.2,1.154a.8.8,0,0,1,.764.722,1,1,0,0,1-.485.779,1.305,1.305,0,0,1-.994.16" transform="translate(15.2 17.1)"/><path class="b" d="M1.973,1.473H1.4V2.789c0,.225.133.281.332.281h.244v.7h-.51a.8.8,0,0,1-.8-.213.829.829,0,0,1-.2-.811V1.462H0V.877H.466V0H1.4V.877h.576v.6Z" transform="translate(18.05 16.15)"/></g></svg>