<svg xmlns="http://www.w3.org/2000/svg" xmlns:xlink="http://www.w3.org/1999/xlink" viewBox="0 0 16 13.091"><defs><style>.a{fill:#111;}.b{fill:rgba(0,0,0,0);}.c{clip-path:url(#a);}.d{fill:#8ec63f;}</style><clipPath id="a"><path class="a" d="M15.787,5.605,10.182,0,9.153,1.028l4.364,4.364H.727a.727.727,0,0,0,0,1.455h12.79L9.153,11.21l1.028,1.028,5.605-5.605A.726.726,0,0,0,15.787,5.605Z"/></clipPath></defs><rect class="b" width="16" height="13.091"/><path class="a" d="M15.787,5.605,10.182,0,9.153,1.028l4.364,4.364H.727a.727.727,0,0,0,0,1.455h12.79L9.153,11.21l1.028,1.028,5.605-5.605A.726.726,0,0,0,15.787,5.605Z" transform="translate(0 0.426)"/><g class="c" transform="translate(0 0.426)"><g transform="translate(0 -0.426)"><rect class="d" width="16" height="13.091"/></g></g></svg>